<?xml version="1.0" encoding="utf-8"?>
<!-- Generator: Adobe Illustrator 28.3.0, SVG Export Plug-In . SVG Version: 6.00 Build 0)  -->
<svg version="1.1" id="Ebene_1" xmlns="http://www.w3.org/2000/svg" xmlns:xlink="http://www.w3.org/1999/xlink" x="0px" y="0px"
	 viewBox="0 0 521 348.1" style="enable-background:new 0 0 521 348.1;" xml:space="preserve">
<style type="text/css">
	.st0{fill:#0089D6;}
</style>
<g id="layer1" transform="translate(1464.93 1469.125)">
	<g id="layer1-1" transform="translate(-677.93 313.854)">
		<path id="path21" class="st0" d="M-640-1564.4c16.5-2.9,30.2-5.3,30.3-5.4l0.3-0.1l-15.6-18.6c-8.6-10.2-15.6-18.6-15.6-18.7
			c0-0.1,16.1-44.5,16.2-44.6c0-0.1,11,18.9,26.6,45.9c14.6,25.3,26.6,46.2,26.7,46.4l0.2,0.4l-49.6,0l-49.6,0L-640-1564.4z
			 M-449.7-1568.9c-7.6-0.5-11.9-4.8-13.1-12.8c-0.3-2.1-0.3-2.2-0.3-16.1l0-13.5h6.7l0,13c0,11.7,0,13.1,0.2,13.9
			c0.5,3.3,1.4,5.6,2.9,7.2c1.3,1.3,2.9,2.2,4.7,2.5c1.5,0.2,3,0.2,4.5,0c1.9-0.4,3.7-1.4,5.1-2.8c1.7-1.8,2.9-4.1,3.4-6.6l0.2-0.9
			l0-13.1l0-13.1h6.8v41.3h-6.8v-3.3c0-1.1,0-2.2-0.1-3.2c-0.2,0.2-0.3,0.4-0.4,0.6c-1.2,2.2-3,4-5.2,5.2
			C-443.8-1569.2-446.7-1568.6-449.7-1568.9L-449.7-1568.9z M-373.1-1568.9c-2.8-0.2-5.4-1.1-7.8-2.5c-4.8-3-7.7-7.9-8.5-14.7
			c-0.3-2.5-0.3-5-0.1-7.5c0.5-4.3,2.1-8.5,4.8-12c0.9-1,1.8-2,2.9-2.9c2.2-1.7,4.7-2.9,7.4-3.5c2-0.4,4-0.5,6-0.3
			c4.1,0.4,7.9,2.3,10.6,5.4c2.6,3.1,4.1,7.5,4.3,12.9c0,0.8,0,2.3,0,3.3l0,1.8l-14.6,0l-14.6,0v0.7c0,2.1,0.5,4.2,1.3,6.2
			c0.7,1.6,1.7,3.1,3,4.4c2.1,1.8,4.7,2.9,7.4,3.1c1.6,0.1,3.2,0,4.8-0.2c3.3-0.5,6.4-1.8,9.1-3.8c0.3-0.2,0.6-0.4,0.6-0.5
			c0.1,0,0.1,0.5,0.1,3v3.1l-0.7,0.4c-3,1.8-6.3,3-9.8,3.4C-368.9-1568.9-371-1568.8-373.1-1568.9L-373.1-1568.9z M-360.3-1595.1
			c0-3.3-1.4-7-3.4-8.9c-1.4-1.4-3.2-2.2-5.2-2.5c-1.3-0.1-2.7-0.1-4,0.1c-2.1,0.4-4,1.4-5.5,2.9c-1.6,1.6-2.9,3.6-3.6,5.8
			c-0.3,0.9-0.5,1.9-0.7,2.8l0,0.3h22.4L-360.3-1595.1z M-558.8-1570c0-0.1,5-13.1,11-29l11-28.9h7.1l0.3,0.8
			c0.9,2.3,22,57.2,22,57.2c0,0-1.7,0-3.8,0h-3.8l-3-8.1l-3-8.1h-24.5l-0.1,0.3c-0.1,0.2-1.4,3.8-2.9,8.1l-2.8,7.8h-3.8
			C-556.3-1569.8-557.5-1569.8-558.8-1570L-558.8-1570z M-523.2-1592.3c0,0-2.1-5.6-4.6-12.4c-4.7-12.7-5-13.4-5.3-15.5
			c-0.2-1-0.3-1-0.4-0.1c-0.1,0.9-0.4,1.9-0.6,2.8c-0.1,0.4-2.2,6.2-4.7,12.9c-2.5,6.7-4.5,12.2-4.5,12.2c0,0,4.5,0.1,10,0.1
			C-527.7-1592.3-523.2-1592.3-523.2-1592.3z M-505-1570.9v-1.1l12.2-16.8l12.2-16.8l-11.1,0l-11.1,0l0-2.8l0-2.8h32v1.9l-12.2,16.9
			c-6.7,9.3-12.2,16.9-12.2,16.9c0,0,5.4,0,12.1,0h12.1v5.7h-34L-505-1570.9z M-415.3-1569.9c0,0,0-9.3,0-20.7v-20.7h6.7v4.3
			c0,2.3,0,4.3,0.1,4.3c0.2-0.3,0.3-0.6,0.4-0.9c0.8-2.2,2.1-4.2,3.7-5.7c1.4-1.4,3.3-2.3,5.3-2.6c0.7-0.1,1.5-0.1,2.2-0.1
			c1,0,2.1,0.1,3.1,0.4l0.3,0.1v6.9l-0.8-0.4c-1.4-0.7-2.9-1-4.4-0.9c-0.9,0-1.8,0.2-2.6,0.5c-1.7,0.6-3.2,1.9-4.2,3.4
			c-1.5,2.4-2.5,5.2-2.8,8c-0.1,0.5-0.1,4.5-0.1,12.4l0,11.7h-3.3C-413.8-1569.9-415.3-1569.9-415.3-1569.9L-415.3-1569.9z
			 M-699.5-1570.1c0,0,7.4-12.8,16.3-28.4l16.3-28.3l19-16c10.5-8.8,19.1-16,19.1-16c-0.1,0.3-0.2,0.5-0.3,0.8
			c-0.2,0.4-9.5,20.4-20.7,44.4l-20.3,43.6l-14.8,0C-692.9-1570-699.5-1570-699.5-1570.1L-699.5-1570.1z"/>
	</g>
</g>
</svg>
